<svg width="20" height="20" viewBox="0 0 20 20" fill="none" xmlns="http://www.w3.org/2000/svg">
<path d="M10.0002 12.6666C11.4729 12.6666 12.6668 11.4727 12.6668 9.99998C12.6668 8.52722 11.4729 7.33331 10.0002 7.33331C8.5274 7.33331 7.3335 8.52722 7.3335 9.99998C7.3335 11.4727 8.5274 12.6666 10.0002 12.6666Z" fill="#650107"/>
<path d="M7.49984 1.66669L5.97484 3.33335H3.33317C2.4165 3.33335 1.6665 4.08335 1.6665 5.00002V15C1.6665 15.9167 2.4165 16.6667 3.33317 16.6667H16.6665C17.5832 16.6667 18.3332 15.9167 18.3332 15V5.00002C18.3332 4.08335 17.5832 3.33335 16.6665 3.33335H14.0248L12.4998 1.66669H7.49984ZM9.99984 14.1667C7.69984 14.1667 5.83317 12.3 5.83317 10C5.83317 7.70002 7.69984 5.83335 9.99984 5.83335C12.2998 5.83335 14.1665 7.70002 14.1665 10C14.1665 12.3 12.2998 14.1667 9.99984 14.1667Z" fill="#650107"/>
</svg>
