<svg width="16" height="16" viewBox="0 0 16 16" fill="none" xmlns="http://www.w3.org/2000/svg">
<path d="M0.5 12.3748V15.4998H3.625L12.8417 6.28317L9.71667 3.15817L0.5 12.3748ZM15.2583 3.86651C15.3356 3.78941 15.3969 3.69784 15.4387 3.59703C15.4805 3.49622 15.502 3.38815 15.502 3.27901C15.502 3.16987 15.4805 3.0618 15.4387 2.96099C15.3969 2.86018 15.3356 2.7686 15.2583 2.69151L13.3083 0.741506C13.2312 0.664253 13.1397 0.602963 13.0389 0.561146C12.938 0.519328 12.83 0.497803 12.7208 0.497803C12.6117 0.497803 12.5036 0.519328 12.4028 0.561146C12.302 0.602963 12.2104 0.664253 12.1333 0.741506L10.6083 2.26651L13.7333 5.39151L15.2583 3.86651Z" fill="white"/>
</svg>
