<svg width="20" height="20" viewBox="0 0 20 20" fill="none" xmlns="http://www.w3.org/2000/svg">
<g clip-path="url(#clip0_572_429)">
<path d="M1.03234 20C0.76889 20 0.50544 19.8998 0.305279 19.6982C-0.0965512 19.2963 -0.0965512 18.6449 0.305279 18.243L18.247 0.301372C18.6488 -0.100457 19.3003 -0.100457 19.7021 0.301372C20.1039 0.703201 20.1039 1.35467 19.7021 1.75675L1.76066 19.6982C1.55899 19.8986 1.29554 20 1.03234 20Z" fill="#650107"/>
<path d="M18.9753 20C18.7118 20 18.4486 19.8998 18.2482 19.6982L0.305279 1.75675C-0.0965512 1.35467 -0.0965512 0.703201 0.305279 0.301372C0.707108 -0.100457 1.35857 -0.100457 1.76066 0.301372L19.7021 18.243C20.1039 18.6449 20.1039 19.2963 19.7021 19.6982C19.5004 19.8986 19.2372 20 18.9753 20Z" fill="#650107"/>
</g>
<defs>
<clipPath id="clip0_572_429">
<rect width="20" height="20" fill="white"/>
</clipPath>
</defs>
</svg>
