<svg width="12" height="8" viewBox="0 0 12 8" fill="none" xmlns="http://www.w3.org/2000/svg">
<path d="M6.00254 5.15605L1.51317 0.666875C1.38985 0.543266 1.22498 0.475266 1.04917 0.475266C0.873268 0.475266 0.708488 0.543266 0.584976 0.666875L0.191805 1.06024C0.0680976 1.18366 0 1.34863 0 1.52444C0 1.70024 0.0680976 1.86502 0.191805 1.98853L5.53678 7.33361C5.66068 7.45761 5.82624 7.52551 6.00224 7.52502C6.17902 7.52551 6.34439 7.4577 6.46839 7.33361L11.8082 1.99351C11.9319 1.87 12 1.70522 12 1.52931C12 1.35351 11.9319 1.18873 11.8082 1.06512L11.415 0.671852C11.1591 0.415949 10.7425 0.415949 10.4867 0.671852L6.00254 5.15605Z" fill="#FE616B"/>
</svg>
