<svg width="196" height="37" viewBox="0 0 196 37" fill="none" xmlns="http://www.w3.org/2000/svg">
<path d="M30.8672 28.4453C30.8672 29.0234 30.7969 29.6328 30.6562 30.2734C30.5312 30.9141 30.3203 31.5547 30.0234 32.1953C29.7422 32.8203 29.375 33.4219 28.9219 34C28.4844 34.5781 27.9453 35.0938 27.3047 35.5469C26.6797 35.9844 25.9531 36.3359 25.125 36.6016C24.2969 36.8672 23.3672 37 22.3359 37H0V30.9062H22.3359C23.1016 30.9062 23.6875 30.6719 24.0938 30.2031C24.5156 29.7344 24.7266 29.1484 24.7266 28.4453V25.7266C24.7266 24.9297 24.5234 24.3203 24.1172 23.8984C23.7109 23.4766 23.1016 23.2656 22.2891 23.2656H8.55469C6.97656 23.2656 5.64062 22.9844 4.54688 22.4219C3.46875 21.8438 2.59375 21.125 1.92188 20.2656C1.25 19.4062 0.757812 18.4766 0.445312 17.4766C0.148438 16.4766 0 15.5469 0 14.6875V3.39062H28.0781V9.48438H6.09375V14.6875C6.09375 15.5 6.30469 16.1094 6.72656 16.5156C7.14844 16.9219 7.75781 17.125 8.55469 17.125H22.3359C23.1797 17.125 24.1016 17.2812 25.1016 17.5938C26.1016 17.8906 27.0234 18.3828 27.8672 19.0703C28.7266 19.7422 29.4375 20.625 30 21.7188C30.5781 22.8125 30.8672 24.1484 30.8672 25.7266V28.4453Z" fill="#FE616B"/>
<path d="M58.5234 37H52.4297V20.1953C52.4297 19.3984 52.2188 18.7969 51.7969 18.3906C51.375 17.9688 50.75 17.7578 49.9219 17.7578H42V37H35.9062V14.6875C35.9062 14.2656 35.9844 13.875 36.1406 13.5156C36.2969 13.1406 36.5156 12.8203 36.7969 12.5547C37.0781 12.2734 37.4062 12.0547 37.7812 11.8984C38.1562 11.7422 38.5547 11.6641 38.9766 11.6641H49.9688C50.8125 11.6641 51.7188 11.8125 52.6875 12.1094C53.6562 12.4062 54.5781 12.8828 55.4531 13.5391V11.6641H63.7031C64.2812 11.6641 64.8906 11.7344 65.5312 11.875C66.1719 12 66.8047 12.2031 67.4297 12.4844C68.0703 12.7656 68.6797 13.1328 69.2578 13.5859C69.8359 14.0234 70.3438 14.5625 70.7812 15.2031C71.2188 15.8281 71.5703 16.5547 71.8359 17.3828C72.1016 18.2109 72.2344 19.1484 72.2344 20.1953V37H66.1406V20.1953C66.1406 19.3984 65.9375 18.7969 65.5312 18.3906C65.1406 17.9688 64.5312 17.7578 63.7031 17.7578H58.2188C58.4219 18.5078 58.5234 19.3203 58.5234 20.1953V37ZM105.117 20.0547C105.117 20.8984 104.969 21.8125 104.672 22.7969C104.375 23.7656 103.891 24.6719 103.219 25.5156C102.562 26.3438 101.695 27.0391 100.617 27.6016C99.5547 28.1641 98.2578 28.4453 96.7266 28.4453H85.7344V22.6562H96.7266C97.5547 22.6562 98.1953 22.4062 98.6484 21.9062C99.1016 21.3906 99.3281 20.7578 99.3281 20.0078C99.3281 19.2109 99.0703 18.5859 98.5547 18.1328C98.0547 17.6797 97.4453 17.4531 96.7266 17.4531H85.7344C84.9062 17.4531 84.2656 17.7109 83.8125 18.2266C83.3594 18.7266 83.1328 19.3516 83.1328 20.1016V28.6094C83.1328 29.4219 83.3828 30.0547 83.8828 30.5078C84.3984 30.9609 85.0312 31.1875 85.7812 31.1875H96.7266V37H85.7344C84.8906 37 83.9766 36.8516 82.9922 36.5547C82.0234 36.2578 81.1172 35.7812 80.2734 35.125C79.4453 34.4531 78.75 33.5859 78.1875 32.5234C77.625 31.4453 77.3438 30.1406 77.3438 28.6094V20.0547C77.3438 19.2109 77.4922 18.3047 77.7891 17.3359C78.0859 16.3516 78.5625 15.4453 79.2188 14.6172C79.8906 13.7734 80.7578 13.0703 81.8203 12.5078C82.8984 11.9453 84.2031 11.6641 85.7344 11.6641H96.7266C97.5703 11.6641 98.4766 11.8125 99.4453 12.1094C100.43 12.4062 101.336 12.8906 102.164 13.5625C103.008 14.2188 103.711 15.0859 104.273 16.1641C104.836 17.2266 105.117 18.5234 105.117 20.0547ZM113.273 33.9297C113.273 34.3516 113.188 34.75 113.016 35.125C112.859 35.4844 112.641 35.8047 112.359 36.0859C112.094 36.3516 111.773 36.5625 111.398 36.7188C111.039 36.875 110.656 36.9531 110.25 36.9531C109.828 36.9531 109.43 36.875 109.055 36.7188C108.695 36.5625 108.375 36.3516 108.094 36.0859C107.828 35.8047 107.617 35.4844 107.461 35.125C107.305 34.75 107.227 34.3516 107.227 33.9297C107.227 33.5234 107.305 33.1406 107.461 32.7812C107.617 32.4062 107.828 32.0859 108.094 31.8203C108.375 31.5391 108.695 31.3203 109.055 31.1641C109.43 30.9922 109.828 30.9062 110.25 30.9062C110.656 30.9062 111.039 30.9922 111.398 31.1641C111.773 31.3203 112.094 31.5391 112.359 31.8203C112.641 32.0859 112.859 32.4062 113.016 32.7812C113.188 33.1406 113.273 33.5234 113.273 33.9297ZM145.594 28.4453C145.594 29.4922 145.461 30.4375 145.195 31.2812C144.93 32.1094 144.578 32.8438 144.141 33.4844C143.703 34.1094 143.195 34.6484 142.617 35.1016C142.039 35.5391 141.43 35.8984 140.789 36.1797C140.164 36.4609 139.523 36.6719 138.867 36.8125C138.227 36.9375 137.617 37 137.039 37H126.047C125.203 37 124.281 36.8516 123.281 36.5547C122.281 36.2578 121.352 35.7734 120.492 35.1016C119.648 34.4141 118.938 33.5312 118.359 32.4531C117.797 31.3594 117.516 30.0234 117.516 28.4453V20.1953C117.516 18.6328 117.797 17.3125 118.359 16.2344C118.938 15.1406 119.648 14.2578 120.492 13.5859C121.352 12.8984 122.281 12.4062 123.281 12.1094C124.281 11.8125 125.203 11.6641 126.047 11.6641H137.039C138.602 11.6641 139.93 11.9453 141.023 12.5078C142.117 13.0703 143 13.7812 143.672 14.6406C144.344 15.4844 144.828 16.4062 145.125 17.4062C145.438 18.4062 145.594 19.3359 145.594 20.1953V28.4453ZM139.5 20.2422C139.5 19.3984 139.289 18.7734 138.867 18.3672C138.445 17.9609 137.836 17.7578 137.039 17.7578H126.094C125.281 17.7578 124.664 17.9688 124.242 18.3906C123.82 18.7969 123.609 19.3984 123.609 20.1953V28.4453C123.609 29.2422 123.82 29.8516 124.242 30.2734C124.664 30.6953 125.281 30.9062 126.094 30.9062H137.039C137.867 30.9062 138.484 30.6953 138.891 30.2734C139.297 29.8516 139.5 29.2422 139.5 28.4453V20.2422ZM178.875 37H172.781V22.9375C172.781 22.1406 172.641 21.4297 172.359 20.8047C172.094 20.1641 171.727 19.6172 171.258 19.1641C170.789 18.7109 170.234 18.3672 169.594 18.1328C168.969 17.8828 168.289 17.7578 167.555 17.7578H156.891V37H150.797V14.6875C150.797 14.2656 150.875 13.875 151.031 13.5156C151.188 13.1406 151.406 12.8203 151.688 12.5547C151.969 12.2734 152.297 12.0547 152.672 11.8984C153.047 11.7422 153.445 11.6641 153.867 11.6641H167.602C168.367 11.6641 169.172 11.75 170.016 11.9219C170.875 12.0938 171.719 12.375 172.547 12.7656C173.391 13.1406 174.188 13.625 174.938 14.2188C175.703 14.7969 176.375 15.5078 176.953 16.3516C177.547 17.1797 178.016 18.1406 178.359 19.2344C178.703 20.3281 178.875 21.5625 178.875 22.9375V37ZM195.352 37H192.633C191.758 37 190.82 36.8516 189.82 36.5547C188.836 36.2578 187.914 35.7734 187.055 35.1016C186.195 34.4141 185.484 33.5312 184.922 32.4531C184.359 31.3594 184.078 30.0234 184.078 28.4453V0.953125H190.172V28.4453C190.172 29.1953 190.406 29.7969 190.875 30.25C191.344 30.6875 191.93 30.9062 192.633 30.9062H195.352V37Z" fill="white"/>
</svg>
