<svg width="72" height="72" viewBox="0 0 72 72" fill="none" xmlns="http://www.w3.org/2000/svg">
<g filter="url(#filter0_d_572_8168)">
<circle cx="36" cy="32" r="20" fill="url(#paint0_linear_572_8168)"/>
<g clip-path="url(#clip0_572_8168)">
<path d="M43.6686 31.4806L28.8118 24.6237C28.5752 24.5162 28.2929 24.5802 28.1284 24.7837C27.9627 24.9871 27.957 25.2762 28.1147 25.4854L33.0003 31.9995L28.1147 38.5136C27.957 38.7227 27.9627 39.013 28.1272 39.2153C28.2381 39.3536 28.4038 39.4279 28.5718 39.4279C28.6529 39.4279 28.7341 39.4107 28.8106 39.3753L43.6674 32.5183C43.8709 32.4246 44 32.2223 44 31.9995C44 31.7766 43.8708 31.5744 43.6686 31.4806Z" fill="white"/>
</g>
</g>
<defs>
<filter id="filter0_d_572_8168" x="0" y="0" width="72" height="72" filterUnits="userSpaceOnUse" color-interpolation-filters="sRGB">
<feFlood flood-opacity="0" result="BackgroundImageFix"/>
<feColorMatrix in="SourceAlpha" type="matrix" values="0 0 0 0 0 0 0 0 0 0 0 0 0 0 0 0 0 0 127 0" result="hardAlpha"/>
<feOffset dy="4"/>
<feGaussianBlur stdDeviation="8"/>
<feColorMatrix type="matrix" values="0 0 0 0 0.995833 0 0 0 0 0.381736 0 0 0 0 0.418582 0 0 0 0.16 0"/>
<feBlend mode="normal" in2="BackgroundImageFix" result="effect1_dropShadow_572_8168"/>
<feBlend mode="normal" in="SourceGraphic" in2="effect1_dropShadow_572_8168" result="shape"/>
</filter>
<linearGradient id="paint0_linear_572_8168" x1="36" y1="12" x2="36" y2="52" gradientUnits="userSpaceOnUse">
<stop stop-color="#FE858D"/>
<stop offset="1" stop-color="#FE616B"/>
</linearGradient>
<clipPath id="clip0_572_8168">
<rect width="16" height="16" fill="white" transform="translate(28 24)"/>
</clipPath>
</defs>
</svg>
