<svg width="40" height="40" viewBox="0 0 40 40" fill="none" xmlns="http://www.w3.org/2000/svg">
<circle cx="20" cy="20" r="20" fill="#FE616B" fill-opacity="0.06"/>
<g clip-path="url(#clip0_572_8210)">
<path fill-rule="evenodd" clip-rule="evenodd" d="M19.9996 13.5286C20.6507 13.5286 21.2758 13.6435 21.856 13.8538V13.7824C21.856 12.7996 21.0564 12 20.0736 12H19.9259C18.9431 12 18.1436 12.7996 18.1436 13.7824V13.8529C18.7234 13.6432 19.3484 13.5286 19.9996 13.5286ZM17.7876 26.5566C18.1632 27.4058 19.0132 28 19.9998 28C20.9864 28 21.8364 27.4058 22.212 26.5566H17.7876ZM14.1411 25.6176H25.8585C26.0802 25.6176 26.2832 25.4681 26.3293 25.2512C26.375 25.0365 26.2771 24.8246 26.0786 24.7329C26.0314 24.7024 25.6769 24.4544 25.3219 23.7043C24.6699 22.3267 24.5331 20.3862 24.5331 19.0008C24.5331 18.9948 24.5329 18.9888 24.5327 18.9828C24.5231 16.4914 22.4933 14.4677 19.9996 14.4677C17.5001 14.4677 15.4665 16.5012 15.4665 19.0008C15.4665 20.3862 15.3296 22.3267 14.6777 23.7043C14.3227 24.4544 13.9681 24.7024 13.921 24.7329C13.7225 24.8246 13.6246 25.0365 13.6702 25.2512C13.7164 25.4681 13.9194 25.6176 14.1411 25.6176Z" fill="url(#paint0_linear_572_8210)"/>
</g>
<circle cx="32" cy="4" r="3.5" fill="#FE616B" stroke="white"/>
<defs>
<linearGradient id="paint0_linear_572_8210" x1="19.9998" y1="12" x2="19.9998" y2="28" gradientUnits="userSpaceOnUse">
<stop stop-color="#FE858D"/>
<stop offset="1" stop-color="#FE616B"/>
</linearGradient>
<clipPath id="clip0_572_8210">
<rect width="16" height="16" fill="white" transform="translate(12 12)"/>
</clipPath>
</defs>
</svg>
